<?xml version="1.0" encoding="utf-8"?>
<!-- Generator: Adobe Illustrator 22.1.0, SVG Export Plug-In . SVG Version: 6.00 Build 0)  -->
<svg version="1.1" id="Capa_1" xmlns="http://www.w3.org/2000/svg" xmlns:xlink="http://www.w3.org/1999/xlink" x="0px" y="0px"
	 viewBox="0 0 200 40" style="enable-background:new 0 0 200 40;" xml:space="preserve">
<style type="text/css">
	.st0{fill:#FFFFFF;}
	.st1{fill:#F7EC45;}
</style>
<g>
	<path class="st0" d="M12.3,15.3v0.4h-2.1v-0.5c0-1.4-0.7-2.2-2.2-2.2c-1.6,0-2.2,0.8-2.2,2.2c0,3.5,6.5,3.8,6.5,8.1
		c0,2.3-1.4,3.9-4.4,3.9s-4.4-1.5-4.4-3.9v-0.9h2v1c0,1.4,0.7,2.2,2.3,2.2c1.6,0,2.3-0.8,2.3-2.2c0-3.4-6.5-3.8-6.5-8.1
		c0-2.4,1.4-3.9,4.3-3.9C10.9,11.5,12.3,13,12.3,15.3z"/>
	<path class="st0" d="M16.4,24l-0.8,3.1h-2l3.7-15.4h3.1l3.7,15.4h-2.2L21.3,24H16.4z M16.7,22.5H21l-2.2-8.9L16.7,22.5z"/>
	<path class="st0" d="M26,27.1V11.6h2.2v13.9h5.6v1.6H26z"/>
	<path class="st0" d="M36.1,11.6l3.2,13.4l3.1-13.4h2l-3.6,15.4h-3.2l-3.7-15.4H36.1z"/>
	<path class="st0" d="M47.6,24l-0.8,3.1h-2l3.7-15.4h3.1l3.7,15.4h-2.2L52.5,24H47.6z M47.9,22.5h4.3L50,13.6L47.9,22.5z"/>
	<path class="st1" d="M65.7,15.4v1.4h-2.1v-1.5c0-1.4-0.7-2.2-2.3-2.2c-1.6,0-2.3,0.8-2.3,2.2v8.1c0,1.4,0.7,2.2,2.3,2.2
		c1.6,0,2.3-0.8,2.3-2.2v-2h2.1v1.9c0,2.3-1.4,3.9-4.4,3.9c-3,0-4.4-1.5-4.4-3.9v-8c0-2.3,1.4-3.9,4.4-3.9
		C64.3,11.5,65.7,13,65.7,15.4z"/>
	<path class="st1" d="M69.9,24l-0.8,3.1h-2l3.7-15.4H74l3.7,15.4h-2.2L74.8,24H69.9z M70.2,22.5h4.3l-2.2-8.9L70.2,22.5z"/>
	<path class="st1" d="M86.6,27h-2.1l-3.2-12.3v12.3h-1.9V11.6h3L85.7,24l3.1-12.3h3v15.4h-2.1V14.7L86.6,27z"/>
	<path class="st1" d="M98.3,11.6c3.1,0,4.4,1.4,4.4,3.8v1.8c0,2.4-1.4,3.7-4.5,3.7h-1.9v6.1H94V11.6H98.3z M98.1,19.4
		c1.6,0,2.4-0.6,2.4-2.1v-2c0-1.4-0.6-2.1-2.2-2.1h-2.1v6.2H98.1z"/>
	<path class="st1" d="M104.2,15.4c0-2.4,1.5-3.9,4.5-3.9c3,0,4.5,1.5,4.5,3.9v8c0,2.3-1.5,3.9-4.5,3.9c-3,0-4.5-1.5-4.5-3.9V15.4z
		 M106.3,23.4c0,1.4,0.8,2.2,2.3,2.2c1.6,0,2.3-0.8,2.3-2.2v-8.1c0-1.4-0.7-2.2-2.3-2.2c-1.6,0-2.3,0.8-2.3,2.2V23.4z"/>
	<path class="st1" d="M123.6,15.3v0.4h-2.1v-0.5c0-1.4-0.7-2.2-2.2-2.2s-2.2,0.8-2.2,2.2c0,3.5,6.5,3.8,6.5,8.1
		c0,2.3-1.4,3.9-4.4,3.9c-3,0-4.4-1.5-4.4-3.9v-0.9h2v1c0,1.4,0.7,2.2,2.3,2.2c1.6,0,2.3-0.8,2.3-2.2c0-3.4-6.5-3.8-6.5-8.1
		c0-2.4,1.4-3.9,4.3-3.9C122.2,11.5,123.6,13,123.6,15.3z"/>
	<path class="st0" d="M127.5,24.9v2.1h-2.1v-2.1H127.5z"/>
	<path class="st0" d="M138.1,15.4v1.4H136v-1.5c0-1.4-0.7-2.2-2.3-2.2c-1.6,0-2.3,0.8-2.3,2.2v8.1c0,1.4,0.7,2.2,2.3,2.2
		c1.6,0,2.3-0.8,2.3-2.2v-2h2.1v1.9c0,2.3-1.4,3.9-4.4,3.9c-3,0-4.4-1.5-4.4-3.9v-8c0-2.3,1.4-3.9,4.4-3.9
		C136.7,11.5,138.1,13,138.1,15.4z"/>
	<path class="st0" d="M139.9,15.4c0-2.4,1.5-3.9,4.5-3.9c3,0,4.5,1.5,4.5,3.9v8c0,2.3-1.5,3.9-4.5,3.9c-3,0-4.5-1.5-4.5-3.9V15.4z
		 M142,23.4c0,1.4,0.8,2.2,2.3,2.2c1.6,0,2.3-0.8,2.3-2.2v-8.1c0-1.4-0.7-2.2-2.3-2.2c-1.6,0-2.3,0.8-2.3,2.2V23.4z"/>
	<path class="st0" d="M158.1,27H156l-3.2-12.3v12.3h-1.9V11.6h3l3.2,12.3l3.1-12.3h3v15.4h-2.1V14.7L158.1,27z"/>
</g>
</svg>
